# xmcd
#
# Track frame offsets: 
#        150
#        10163
#        21336
#        34835
#        45269
#        56828
#        70362
#        85019
#        97634
#        110241
#        122110
#        134159
#        144960
#        157916
#        170480
#        183830
#        201825
#        213503
#
# Disc length: 3013 seconds
#
# Revision: 0
# Processed by: cddbd v1.5.2PL0 Copyright (c) Steve Scherf et al.
# Submitted via: ExactAudioCopy v1.0b3
#
DISCID=f80bc312
DTITLE=by David Rodigan - Masterpiece - Hey Youthman
DYEAR=1900
DGENRE=
TTITLE0=The Kinks - You Really Got Me
TTITLE1=The Yardbirds - For Your Love
TTITLE2=Marvin Gaye - Ain't That Prculiar
TTITLE3=The Impressions - Gipsy Woman
TTITLE4=James Brown and The Famous Flames - I Loves You Porgy
TTITLE5=Etta James - At Last
TTITLE6=The Tornadoes - Telstar
TTITLE7=Small Faces - Itckycoo Park
TTITLE8=Dusty Springfield - You Don't Have To Say You Love Me
TTITLE9=Bessie Banks - Go Now
TTITLE10=Aaron Neville - Tell It Like It Is
TTITLE11=Jet Harris and Tony Meehan - Diamonds
TTITLE12=Justin Hinds and The Dominos - Carry Go Bring Come
TTITLE13=Desmond Dekker - Beautiful And Dangerous
TTITLE14=Alton Ellis - Black Man's Pride
TTITLE15=Bob Marley and The Wailers - Small Ase
TTITLE16=Delroy Wilson - Love Uprising
TTITLE17=August Pablo - Java
EXTD=
EXTT0=
EXTT1=
EXTT2=
EXTT3=
EXTT4=
EXTT5=
EXTT6=
EXTT7=
EXTT8=
EXTT9=
EXTT10=
EXTT11=
EXTT12=
EXTT13=
EXTT14=
EXTT15=
EXTT16=
EXTT17=
PLAYORDER=
